# Blender 4.5.3 LTS
# www.blender.org
mtllib dado.mtl
o Cube
v 1.000000 1.000000 -1.000000
v 1.000000 -1.000000 -1.000000
v 1.000000 1.000000 1.000000
v 1.000000 -1.000000 1.000000
v -1.000000 1.000000 -1.000000
v -1.000000 -1.000000 -1.000000
v -1.000000 1.000000 1.000000
v -1.000000 -1.000000 1.000000
vn -0.0000 1.0000 -0.0000
vn -0.0000 -0.0000 1.0000
vn -1.0000 -0.0000 -0.0000
vn -0.0000 -1.0000 -0.0000
vn 1.0000 -0.0000 -0.0000
vn -0.0000 -0.0000 -1.0000
vt 0.500984 0.000837
vt 0.750984 0.000837
vt 0.750984 0.250837
vt 0.500984 0.250837
vt 0.249434 0.750000
vt 0.499434 0.750000
vt 0.499434 1.000000
vt 0.249434 1.000000
vt 0.249434 0.006201
vt 0.499434 0.006201
vt 0.499434 0.256201
vt 0.249434 0.256201
vt -0.000566 -0.000713
vt 0.249434 -0.000713
vt 0.249434 0.249287
vt -0.000566 0.249287
vt 0.249434 0.493799
vt 0.499434 0.493799
vt 0.499434 0.743799
vt 0.249434 0.743799
vt 0.250984 0.246900
vt 0.500984 0.246900
vt 0.500984 0.496900
vt 0.250984 0.496900
s 0
usemtl dado
f 1/1/1 5/2/1 7/3/1 3/4/1
f 4/5/2 3/6/2 7/7/2 8/8/2
f 8/9/3 7/10/3 5/11/3 6/12/3
f 6/13/4 2/14/4 4/15/4 8/16/4
f 2/17/5 1/18/5 3/19/5 4/20/5
f 6/21/6 5/22/6 1/23/6 2/24/6
